<svg xmlns="http://www.w3.org/2000/svg" xmlns:xlink="http://www.w3.org/1999/xlink" width="500" zoomAndPan="magnify" viewBox="0 0 375 374.999991" height="500" preserveAspectRatio="xMidYMid meet" version="1.0"><defs><g/><clipPath id="67f9fb865a"><path d="M 9.785156 154 L 65.285156 154 L 65.285156 264.753906 L 9.785156 264.753906 Z M 9.785156 154 " clip-rule="nonzero"/></clipPath><clipPath id="a343bfeb1e"><path d="M 9.785156 46.503906 L 65.285156 46.503906 L 65.285156 157 L 9.785156 157 Z M 9.785156 46.503906 " clip-rule="nonzero"/></clipPath><clipPath id="f65ff5595d"><path d="M 309.785156 165 L 365.214844 165 L 365.214844 275.71875 L 309.785156 275.71875 Z M 309.785156 165 " clip-rule="nonzero"/></clipPath><clipPath id="11a5a62575"><path d="M 309.785156 57.46875 L 365.214844 57.46875 L 365.214844 168 L 309.785156 168 Z M 309.785156 57.46875 " clip-rule="nonzero"/></clipPath></defs><g clip-path="url(#67f9fb865a)"><path fill="#cdcbc9" d="M 11.1875 154.984375 C 14.417969 155.324219 17.445312 155.949219 20.402344 156.664062 C 21.113281 156.800781 21.96875 157.113281 22.753906 157.40625 C 23.546875 157.71875 24.394531 157.984375 25.167969 158.363281 C 26.730469 159.109375 28.296875 159.933594 29.769531 160.925781 C 35.761719 164.804688 40.585938 170.800781 43.621094 177.761719 L 44.644531 180.429688 C 45 181.324219 45.21875 182.253906 45.503906 183.175781 C 46.0625 185.027344 46.308594 186.941406 46.636719 188.863281 C 46.757812 189.828125 46.828125 190.800781 46.910156 191.777344 C 46.953125 192.265625 46.988281 192.753906 47 193.246094 L 46.972656 194.714844 C 46.941406 195.695312 46.925781 196.683594 46.859375 197.664062 L 46.53125 200.609375 C 46.441406 201.601562 46.234375 202.566406 46.003906 203.53125 C 45.769531 204.492188 45.578125 205.472656 45.28125 206.417969 L 44.363281 209.25 L 44.125 209.960938 L 44.066406 210.136719 C 44.046875 210.191406 44.050781 210.199219 44.042969 210.230469 L 44.003906 210.394531 L 43.84375 211.039062 C 43.730469 211.46875 43.585938 211.878906 43.449219 212.296875 C 43.3125 212.710938 43.273438 213.152344 43.171875 213.574219 C 43.074219 213.996094 42.945312 214.410156 42.851562 214.835938 C 42.800781 215.265625 42.746094 215.695312 42.671875 216.121094 C 41.558594 222.914062 42.378906 230.167969 45.648438 237.566406 C 46.074219 238.480469 46.554688 239.378906 47.007812 240.355469 C 47.273438 240.804688 47.5625 241.238281 47.839844 241.699219 C 48.136719 242.132812 48.355469 242.675781 48.679688 243.109375 C 49.320312 243.980469 49.929688 244.960938 50.65625 245.847656 L 51.757812 247.21875 C 51.957031 247.453125 52.109375 247.679688 52.351562 247.929688 C 52.617188 248.183594 52.875 248.441406 53.132812 248.714844 C 55.195312 250.839844 57.234375 253.011719 59.183594 255.351562 C 61.144531 257.671875 63.054688 260.09375 64.796875 262.824219 L 65.03125 263.1875 C 65.265625 263.554688 65.15625 264.046875 64.789062 264.285156 C 64.542969 264.4375 64.246094 264.445312 64.003906 264.324219 L 48.847656 256.832031 C 43.714844 254.300781 38.835938 250.789062 35.109375 246.292969 C 27.523438 237.390625 23.992188 225.132812 25.847656 213.523438 L 26.210938 211.355469 C 26.378906 210.644531 26.582031 209.9375 26.769531 209.230469 C 26.972656 208.523438 27.121094 207.804688 27.367188 207.117188 L 28.136719 205.058594 L 29.605469 201.175781 C 29.839844 200.546875 29.984375 199.886719 30.179688 199.246094 C 30.363281 198.601562 30.566406 197.957031 30.667969 197.292969 L 31.050781 195.316406 C 31.148438 194.652344 31.199219 193.980469 31.277344 193.316406 L 31.386719 192.3125 L 31.40625 191.304688 C 31.417969 190.632812 31.449219 189.960938 31.441406 189.289062 C 31.34375 187.949219 31.328125 186.601562 31.089844 185.273438 C 30.980469 184.609375 30.949219 183.933594 30.78125 183.28125 L 30.347656 181.308594 C 28.992188 176.097656 26.488281 171.132812 22.882812 167.0625 C 22.039062 165.996094 21.046875 165.066406 20.074219 164.105469 C 19.601562 163.617188 19.039062 163.222656 18.527344 162.773438 C 17.996094 162.339844 17.496094 161.890625 16.917969 161.472656 L 10.1875 156.359375 C 9.839844 156.09375 9.769531 155.597656 10.039062 155.246094 C 10.210938 155.019531 10.484375 154.910156 10.753906 154.9375 L 11.1875 154.984375 " fill-opacity="1" fill-rule="nonzero"/></g><g clip-path="url(#a343bfeb1e)"><path fill="#cdcbc9" d="M 64.796875 48.523438 C 63.058594 51.261719 61.152344 53.6875 59.195312 56.015625 C 57.246094 58.359375 55.207031 60.53125 53.148438 62.660156 C 52.894531 62.9375 52.628906 63.1875 52.367188 63.445312 C 52.125 63.695312 51.972656 63.921875 51.773438 64.160156 L 50.675781 65.53125 C 50.308594 65.96875 49.980469 66.4375 49.660156 66.90625 L 48.707031 68.265625 C 48.386719 68.703125 48.164062 69.242188 47.867188 69.675781 C 47.585938 70.132812 47.300781 70.570312 47.039062 71.019531 L 46.355469 72.441406 C 46.148438 72.921875 45.847656 73.308594 45.679688 73.804688 C 42.414062 81.195312 41.601562 88.425781 42.671875 95.226562 C 42.738281 95.652344 42.796875 96.082031 42.847656 96.511719 C 42.9375 96.933594 43.074219 97.347656 43.160156 97.773438 C 43.261719 98.195312 43.304688 98.636719 43.4375 99.050781 C 43.574219 99.46875 43.722656 99.878906 43.824219 100.3125 L 43.980469 100.957031 L 44.019531 101.121094 C 44.03125 101.15625 44.027344 101.164062 44.046875 101.21875 L 44.105469 101.394531 L 44.34375 102.101562 L 45.261719 104.933594 C 45.554688 105.878906 45.746094 106.859375 45.984375 107.820312 C 46.21875 108.78125 46.394531 109.753906 46.496094 110.742188 C 47.074219 114.65625 47.082031 118.621094 46.601562 122.480469 C 46.269531 124.402344 46.039062 126.316406 45.460938 128.164062 C 45.175781 129.085938 44.960938 130.011719 44.601562 130.90625 L 43.582031 133.574219 C 40.542969 140.527344 35.722656 146.515625 29.742188 150.394531 C 28.273438 151.386719 26.710938 152.214844 25.148438 152.957031 C 24.375 153.339844 23.527344 153.605469 22.738281 153.917969 C 21.953125 154.210938 21.097656 154.523438 20.390625 154.664062 C 17.433594 155.382812 14.414062 156.015625 11.1875 156.359375 L 10.757812 156.40625 C 10.320312 156.453125 9.925781 156.136719 9.878906 155.703125 C 9.847656 155.414062 9.976562 155.148438 10.1875 154.984375 L 16.917969 149.875 C 17.496094 149.453125 17.996094 149.007812 18.527344 148.574219 C 19.042969 148.125 19.601562 147.730469 20.078125 147.238281 C 21.046875 146.28125 22.042969 145.351562 22.886719 144.28125 C 26.488281 140.210938 28.996094 135.246094 30.351562 130.039062 L 30.785156 128.066406 C 30.953125 127.414062 30.984375 126.734375 31.09375 126.070312 C 31.328125 124.742188 31.34375 123.394531 31.441406 122.054688 C 31.449219 121.382812 31.417969 120.710938 31.410156 120.039062 L 31.386719 119.03125 L 31.277344 118.03125 C 31.199219 117.363281 31.148438 116.691406 31.050781 116.027344 L 30.667969 114.050781 C 30.566406 113.386719 30.363281 112.742188 30.179688 112.097656 C 29.984375 111.457031 29.84375 110.796875 29.605469 110.171875 L 28.136719 106.285156 L 27.371094 104.226562 C 27.121094 103.539062 26.972656 102.816406 26.769531 102.117188 C 26.585938 101.40625 26.378906 100.703125 26.214844 99.988281 L 25.847656 97.820312 C 23.988281 86.210938 27.527344 73.953125 35.105469 65.050781 C 35.539062 64.460938 36.085938 63.96875 36.582031 63.433594 L 38.105469 61.863281 C 39.210938 60.910156 40.296875 59.933594 41.445312 59.042969 L 43.234375 57.785156 C 43.828125 57.363281 44.414062 56.933594 45.0625 56.59375 C 46.324219 55.894531 47.589844 55.101562 48.847656 54.507812 L 64.003906 47.019531 C 64.398438 46.824219 64.875 46.984375 65.070312 47.378906 C 65.199219 47.636719 65.175781 47.929688 65.03125 48.15625 L 64.796875 48.523438 " fill-opacity="1" fill-rule="nonzero"/></g><g clip-path="url(#f65ff5595d)"><path fill="#cdcbc9" d="M 363.8125 165.949219 C 360.578125 166.289062 357.554688 166.910156 354.59375 167.628906 C 353.882812 167.765625 353.027344 168.078125 352.242188 168.371094 C 351.449219 168.683594 350.601562 168.949219 349.828125 169.328125 C 348.269531 170.074219 346.699219 170.898438 345.226562 171.890625 C 339.234375 175.769531 334.414062 181.765625 331.375 188.726562 L 330.351562 191.394531 C 329.996094 192.289062 329.777344 193.21875 329.492188 194.140625 C 328.933594 195.992188 328.6875 197.90625 328.359375 199.828125 C 328.238281 200.792969 328.167969 201.765625 328.085938 202.742188 C 328.042969 203.230469 328.007812 203.71875 327.996094 204.210938 L 328.023438 205.679688 C 328.054688 206.660156 328.070312 207.644531 328.136719 208.628906 L 328.46875 211.574219 C 328.554688 212.5625 328.761719 213.53125 328.992188 214.496094 C 329.226562 215.457031 329.417969 216.4375 329.714844 217.382812 L 330.632812 220.214844 L 330.871094 220.925781 L 330.929688 221.101562 C 330.949219 221.15625 330.945312 221.164062 330.957031 221.195312 L 330.992188 221.359375 L 331.152344 222.003906 C 331.265625 222.433594 331.410156 222.84375 331.550781 223.261719 C 331.683594 223.675781 331.722656 224.117188 331.824219 224.539062 C 331.925781 224.960938 332.050781 225.375 332.144531 225.796875 C 332.199219 226.230469 332.25 226.660156 332.324219 227.082031 C 333.4375 233.878906 332.617188 241.132812 329.347656 248.53125 C 328.921875 249.445312 328.441406 250.34375 327.988281 251.320312 C 327.726562 251.769531 327.433594 252.203125 327.15625 252.664062 C 326.859375 253.097656 326.640625 253.640625 326.316406 254.074219 C 325.675781 254.945312 325.066406 255.925781 324.339844 256.8125 L 323.238281 258.183594 C 323.042969 258.417969 322.886719 258.644531 322.644531 258.894531 C 322.382812 259.148438 322.121094 259.40625 321.863281 259.679688 C 319.800781 261.804688 317.761719 263.976562 315.8125 266.316406 C 313.851562 268.636719 311.945312 271.058594 310.199219 273.785156 L 309.964844 274.152344 C 309.730469 274.519531 309.839844 275.011719 310.207031 275.25 C 310.453125 275.402344 310.75 275.410156 310.992188 275.289062 L 326.148438 267.796875 C 331.285156 265.265625 336.160156 261.753906 339.890625 257.257812 C 347.472656 248.355469 351.003906 236.097656 349.148438 224.488281 L 348.785156 222.320312 C 348.617188 221.609375 348.414062 220.902344 348.226562 220.195312 C 348.023438 219.488281 347.875 218.769531 347.628906 218.082031 L 346.859375 216.023438 L 345.390625 212.140625 C 345.15625 211.511719 345.011719 210.851562 344.816406 210.210938 C 344.632812 209.566406 344.429688 208.921875 344.328125 208.257812 L 343.945312 206.28125 C 343.851562 205.617188 343.796875 204.945312 343.71875 204.28125 L 343.613281 203.277344 L 343.589844 202.269531 C 343.578125 201.597656 343.546875 200.925781 343.554688 200.253906 C 343.652344 198.914062 343.667969 197.566406 343.90625 196.238281 C 344.015625 195.574219 344.046875 194.898438 344.214844 194.246094 L 344.648438 192.273438 C 346.003906 187.0625 348.507812 182.097656 352.113281 178.027344 C 352.957031 176.960938 353.953125 176.03125 354.921875 175.070312 C 355.394531 174.582031 355.957031 174.1875 356.46875 173.738281 C 357 173.304688 357.5 172.855469 358.078125 172.4375 L 364.808594 167.324219 C 365.15625 167.058594 365.226562 166.5625 364.957031 166.210938 C 364.785156 165.984375 364.511719 165.875 364.242188 165.902344 L 363.8125 165.949219 " fill-opacity="1" fill-rule="nonzero"/></g><g clip-path="url(#11a5a62575)"><path fill="#cdcbc9" d="M 310.199219 59.488281 C 311.9375 62.226562 313.84375 64.652344 315.800781 66.976562 C 317.75 69.324219 319.789062 71.496094 321.847656 73.625 C 322.101562 73.902344 322.367188 74.152344 322.628906 74.410156 C 322.871094 74.660156 323.023438 74.886719 323.222656 75.125 L 324.320312 76.496094 C 324.6875 76.933594 325.015625 77.402344 325.335938 77.871094 L 326.289062 79.230469 C 326.609375 79.667969 326.832031 80.207031 327.132812 80.640625 C 327.410156 81.097656 327.695312 81.53125 327.957031 81.984375 L 328.640625 83.402344 C 328.847656 83.886719 329.148438 84.273438 329.316406 84.769531 C 332.582031 92.160156 333.394531 99.390625 332.324219 106.191406 C 332.257812 106.617188 332.199219 107.046875 332.148438 107.476562 C 332.058594 107.898438 331.921875 108.3125 331.835938 108.738281 C 331.734375 109.160156 331.695312 109.601562 331.558594 110.015625 C 331.421875 110.433594 331.273438 110.84375 331.175781 111.277344 L 331.015625 111.921875 L 330.976562 112.085938 C 330.964844 112.117188 330.96875 112.125 330.949219 112.179688 L 330.890625 112.359375 L 330.652344 113.066406 L 329.734375 115.898438 C 329.441406 116.84375 329.25 117.824219 329.015625 118.785156 C 328.777344 119.746094 328.601562 120.71875 328.5 121.707031 C 327.921875 125.621094 327.914062 129.585938 328.394531 133.445312 C 328.730469 135.367188 328.960938 137.28125 329.539062 139.128906 C 329.820312 140.050781 330.035156 140.976562 330.394531 141.871094 L 331.414062 144.535156 C 334.453125 151.492188 339.273438 157.480469 345.253906 161.359375 C 346.726562 162.351562 348.285156 163.179688 349.847656 163.921875 C 350.621094 164.304688 351.46875 164.570312 352.257812 164.882812 C 353.042969 165.175781 353.898438 165.488281 354.609375 165.628906 C 357.5625 166.347656 360.585938 166.980469 363.8125 167.324219 L 364.238281 167.371094 C 364.675781 167.417969 365.070312 167.101562 365.117188 166.667969 C 365.148438 166.378906 365.019531 166.113281 364.808594 165.949219 L 358.078125 160.839844 C 357.5 160.417969 357 159.972656 356.46875 159.539062 C 355.957031 159.089844 355.394531 158.695312 354.917969 158.203125 C 353.949219 157.246094 352.957031 156.316406 352.109375 155.246094 C 348.507812 151.175781 346 146.210938 344.648438 141.003906 L 344.210938 139.03125 C 344.042969 138.378906 344.011719 137.699219 343.902344 137.035156 C 343.667969 135.707031 343.652344 134.359375 343.554688 133.019531 C 343.546875 132.347656 343.578125 131.675781 343.589844 131.003906 L 343.609375 129.996094 L 343.71875 128.996094 C 343.796875 128.328125 343.847656 127.65625 343.945312 126.992188 L 344.328125 125.015625 C 344.429688 124.351562 344.632812 123.707031 344.816406 123.0625 C 345.011719 122.421875 345.152344 121.761719 345.390625 121.132812 L 346.859375 117.25 L 347.625 115.191406 C 347.875 114.503906 348.023438 113.78125 348.226562 113.078125 C 348.410156 112.371094 348.617188 111.667969 348.78125 110.953125 L 349.148438 108.785156 C 351.007812 97.175781 347.46875 84.917969 339.890625 76.011719 C 339.457031 75.425781 338.910156 74.933594 338.414062 74.398438 L 336.890625 72.828125 C 335.785156 71.875 334.699219 70.898438 333.550781 70.007812 L 331.761719 68.75 C 331.167969 68.328125 330.582031 67.898438 329.933594 67.558594 C 328.671875 66.859375 327.40625 66.066406 326.148438 65.472656 L 310.992188 57.984375 C 310.597656 57.789062 310.121094 57.949219 309.925781 58.34375 C 309.796875 58.597656 309.824219 58.894531 309.964844 59.121094 L 310.199219 59.488281 " fill-opacity="1" fill-rule="nonzero"/></g><g fill="#cdcbc9" fill-opacity="1"><g transform="translate(164.38322, 255.568783)"><g><path d="M 113.28125 -66.484375 C 113.28125 -61.640625 112.90625 -56.957031 112.15625 -52.4375 C 112.570312 -55.28125 112.382812 -57.617188 111.59375 -59.453125 C 110.800781 -61.296875 109.191406 -62.21875 106.765625 -62.21875 C 105.335938 -62.21875 104.097656 -62.007812 103.046875 -61.59375 C 102.003906 -61.175781 100.691406 -60.96875 99.109375 -60.96875 C 97.265625 -60.96875 95.523438 -61.320312 93.890625 -62.03125 C 92.265625 -62.75 90.84375 -63.710938 89.625 -64.921875 C 88.414062 -66.128906 87.457031 -67.550781 86.75 -69.1875 C 86.039062 -70.820312 85.6875 -72.554688 85.6875 -74.390625 C 85.6875 -76.234375 86.039062 -77.96875 86.75 -79.59375 C 87.457031 -81.226562 88.414062 -82.648438 89.625 -83.859375 C 90.84375 -85.078125 92.265625 -86.039062 93.890625 -86.75 C 95.523438 -87.457031 97.265625 -87.8125 99.109375 -87.8125 C 101.785156 -87.8125 104.1875 -87.097656 106.3125 -85.671875 C 108.445312 -84.253906 110.0625 -82.421875 111.15625 -80.171875 C 112.15625 -78.160156 112.757812 -75.898438 112.96875 -73.390625 C 113.175781 -70.878906 113.28125 -68.578125 113.28125 -66.484375 Z M 23.703125 -8.65625 C 23.703125 -7.570312 24.054688 -6.484375 24.765625 -5.390625 C 25.484375 -4.304688 26.425781 -3.34375 27.59375 -2.5 C 28.769531 -1.664062 30.109375 -1.0625 31.609375 -0.6875 C 33.117188 -0.3125 34.664062 -0.289062 36.25 -0.625 C 34.332031 -0.207031 32.535156 0 30.859375 0 C 24.835938 0 19.960938 -2.046875 16.234375 -6.140625 C 12.515625 -10.242188 10.65625 -16.351562 10.65625 -24.46875 L 10.65625 -79.53125 C 10.65625 -81.625 9.921875 -83.523438 8.453125 -85.234375 C 6.992188 -86.953125 5.222656 -87.8125 3.140625 -87.8125 L 30.484375 -87.8125 C 31.148438 -87.8125 31.691406 -87.582031 32.109375 -87.125 C 32.535156 -86.664062 32.75 -86.101562 32.75 -85.4375 L 32.75 -26.09375 C 32.75 -23.832031 32.265625 -21.96875 31.296875 -20.5 C 30.335938 -19.039062 29.289062 -17.703125 28.15625 -16.484375 C 27.03125 -15.273438 26.003906 -14.066406 25.078125 -12.859375 C 24.160156 -11.648438 23.703125 -10.25 23.703125 -8.65625 Z M 61.21875 -8.65625 C 61.21875 -7.570312 61.570312 -6.484375 62.28125 -5.390625 C 63 -4.304688 63.921875 -3.34375 65.046875 -2.5 C 66.171875 -1.664062 67.484375 -1.0625 68.984375 -0.6875 C 70.492188 -0.3125 72.085938 -0.289062 73.765625 -0.625 C 72.847656 -0.457031 71.925781 -0.3125 71 -0.1875 C 70.082031 -0.0625 69.164062 0 68.25 0 C 62.3125 0 57.476562 -2.046875 53.75 -6.140625 C 50.03125 -10.242188 48.171875 -16.351562 48.171875 -24.46875 L 48.171875 -79.53125 C 48.171875 -81.625 47.4375 -83.523438 45.96875 -85.234375 C 44.507812 -86.953125 42.691406 -87.8125 40.515625 -87.8125 L 67.875 -87.8125 C 69.457031 -87.8125 70.25 -87.019531 70.25 -85.4375 L 70.25 -26.09375 C 70.25 -23.832031 69.769531 -21.96875 68.8125 -20.5 C 67.851562 -19.039062 66.804688 -17.703125 65.671875 -16.484375 C 64.546875 -15.273438 63.519531 -14.066406 62.59375 -12.859375 C 61.675781 -11.648438 61.21875 -10.25 61.21875 -8.65625 Z M 61.21875 -8.65625 "/></g></g></g><g fill="#8c52ff" fill-opacity="1"><g transform="translate(95.386752, 176.903093)"><g><path d="M 22.078125 -7.90625 C 21.910156 -6.5625 22.054688 -5.410156 22.515625 -4.453125 C 22.972656 -3.492188 23.617188 -2.675781 24.453125 -2 C 25.296875 -1.332031 26.257812 -0.832031 27.34375 -0.5 C 28.4375 -0.164062 29.484375 0 30.484375 0 C 26.722656 0 23.164062 -0.644531 19.8125 -1.9375 C 16.46875 -3.238281 13.5625 -4.992188 11.09375 -7.203125 C 8.632812 -9.421875 6.691406 -12.015625 5.265625 -14.984375 C 3.847656 -17.953125 3.140625 -21.113281 3.140625 -24.46875 C 3.140625 -26.300781 3.492188 -28.03125 4.203125 -29.65625 C 4.910156 -31.289062 5.867188 -32.710938 7.078125 -33.921875 C 8.296875 -35.140625 9.71875 -36.101562 11.34375 -36.8125 C 12.976562 -37.53125 14.71875 -37.890625 16.5625 -37.890625 C 18.394531 -37.890625 20.128906 -37.53125 21.765625 -36.8125 C 23.398438 -36.101562 24.820312 -35.140625 26.03125 -33.921875 C 27.238281 -32.710938 28.195312 -31.289062 28.90625 -29.65625 C 29.625 -28.03125 29.984375 -26.300781 29.984375 -24.46875 C 29.984375 -20.945312 28.769531 -17.851562 26.34375 -15.1875 C 25.425781 -14.175781 24.523438 -13 23.640625 -11.65625 C 22.765625 -10.320312 22.242188 -9.070312 22.078125 -7.90625 Z M 30.734375 0 L 30.484375 0 Z M 65.859375 -87.8125 C 63.773438 -87.8125 62 -86.953125 60.53125 -85.234375 C 59.0625 -83.523438 58.328125 -81.625 58.328125 -79.53125 L 58.328125 -24.46875 C 58.328125 -21.539062 57.785156 -18.757812 56.703125 -16.125 C 55.617188 -13.488281 54.09375 -11.125 52.125 -9.03125 C 50.15625 -6.9375 47.851562 -5.132812 45.21875 -3.625 C 42.59375 -2.125 39.726562 -1.082031 36.625 -0.5 C 37.71875 -0.75 38.828125 -1.082031 39.953125 -1.5 C 41.085938 -1.914062 42.09375 -2.457031 42.96875 -3.125 C 43.84375 -3.800781 44.550781 -4.554688 45.09375 -5.390625 C 45.644531 -6.234375 45.921875 -7.15625 45.921875 -8.15625 C 45.921875 -9.820312 45.414062 -11.320312 44.40625 -12.65625 C 43.40625 -14 42.273438 -15.273438 41.015625 -16.484375 C 39.765625 -17.703125 38.632812 -18.957031 37.625 -20.25 C 36.625 -21.550781 36.125 -22.957031 36.125 -24.46875 L 36.125 -79.53125 C 36.125 -81.625 35.390625 -83.523438 33.921875 -85.234375 C 32.460938 -86.953125 30.691406 -87.8125 28.609375 -87.8125 Z M 65.859375 -87.8125 "/></g></g></g></svg>